<svg width="20" height="21" viewBox="0 0 20 21" fill="none" xmlns="http://www.w3.org/2000/svg">
<path d="M17.3049 0.36261H2.69506C1.20665 0.36261 0 1.56921 0 3.05767V17.6676C0 19.1561 1.2066 20.3627 2.69506 20.3627H9.90056L9.91284 13.2157H8.05607C7.81477 13.2157 7.61892 13.0206 7.61799 12.7793L7.60909 10.4756C7.60816 10.2329 7.80459 10.0358 8.04721 10.0358H9.90061V7.80975C9.90061 5.22649 11.4783 3.81988 13.7827 3.81988H15.6737C15.9157 3.81988 16.1118 4.01602 16.1118 4.25801V6.20054C16.1118 6.44243 15.9158 6.63853 15.674 6.63867L14.5135 6.63921C13.2603 6.63921 13.0176 7.23473 13.0176 8.10869V10.0358H15.7714C16.0338 10.0358 16.2373 10.2649 16.2064 10.5255L15.9334 12.8293C15.9072 13.0497 15.7203 13.2158 15.4983 13.2158H13.0299L13.0176 20.3628H17.305C18.7934 20.3628 20 19.1562 20 17.6677V3.05767C20 1.56921 18.7934 0.36261 17.3049 0.36261Z" fill="#989898"/>
</svg>
