<svg width="50" height="70" viewBox="0 0 50 70" fill="none" xmlns="http://www.w3.org/2000/svg">
<path d="M25 0C11.4304 0 0.390625 11.0398 0.390625 24.6094C0.390625 29.1941 1.66061 33.6684 4.06412 37.5501L23.5992 69.0305C23.9734 69.6336 24.6326 70 25.3417 70C25.3471 70 25.3525 70 25.3579 70C26.0731 69.9944 26.7337 69.6166 27.1011 69.003L46.1382 37.2176C48.4091 33.4179 49.6094 29.0581 49.6094 24.6094C49.6094 11.0398 38.5696 0 25 0ZM42.6184 35.1118L25.3106 64.0098L7.55018 35.3891C5.54957 32.1582 4.46484 28.4307 4.46484 24.6094C4.46484 13.3014 13.692 4.07422 25 4.07422C36.308 4.07422 45.5215 13.3014 45.5215 24.6094C45.5215 28.3173 44.5083 31.9495 42.6184 35.1118Z" fill="#CBCBCB"/>
<path d="M25 12.3047C18.2152 12.3047 12.6953 17.8246 12.6953 24.6094C12.6953 31.3508 18.1254 36.9141 25 36.9141C31.9594 36.9141 37.3047 31.2767 37.3047 24.6094C37.3047 17.8246 31.7848 12.3047 25 12.3047ZM25 32.8398C20.4531 32.8398 16.7695 29.1439 16.7695 24.6094C16.7695 20.0862 20.4768 16.3789 25 16.3789C29.5232 16.3789 33.2168 20.0862 33.2168 24.6094C33.2168 29.0778 29.6189 32.8398 25 32.8398Z" fill="#CBCBCB"/>
</svg>
