<svg width="55" height="548" viewBox="0 0 55 548" fill="none" xmlns="http://www.w3.org/2000/svg">
<mask id="path-1-outside-1" maskUnits="userSpaceOnUse" x="-0.149072" y="0.160001" width="55" height="548" fill="black">
<rect fill="white" x="-0.149072" y="0.160001" width="55" height="548"/>
<path d="M0.99995 13.484L0.99995 1.16L51.718 1.16L51.718 16.249L24.621 24.465L51.718 32.681L51.718 47.77L0.999948 47.77L0.999949 35.525L33.232 35.525L11.981 29.205L11.981 19.725L33.074 13.484L0.99995 13.484Z"/>
<path d="M40.4209 64.9068L40.4209 74.5448C40.4209 82.2868 37.1556 86.1578 30.625 86.1578L17.1949 86.1578L17.1949 66.0128L11.981 66.0128C10.8223 66.0128 10.243 66.6712 10.243 67.9878L10.243 71.4638C10.243 72.7805 10.8749 73.4388 12.1389 73.4388L14.3509 73.4388L14.3509 86.1578L10.7959 86.1578C4.26528 86.1578 0.999947 82.2868 0.999947 74.5448L0.999948 64.9068C0.999948 57.1648 4.26528 53.2938 10.7959 53.2938L30.625 53.2938C37.1556 53.2938 40.4209 57.1648 40.4209 64.9068ZM24.463 66.0128L24.463 73.4388L29.4399 73.4388C30.5986 73.4388 31.1779 72.7805 31.1779 71.4638L31.1779 67.9878C31.1779 66.6712 30.5986 66.0128 29.44 66.0128L24.463 66.0128Z"/>
<path d="M40.8159 112.994L40.8159 114.179L29.1239 114.179L29.1239 109.676C29.1239 106.358 27.3333 104.699 23.7519 104.699L0.999946 104.699L0.999946 91.2694L40.4209 91.2694L40.4209 104.462L34.3379 104.462C36.3393 104.884 37.9193 105.832 39.0779 107.306C40.2366 108.781 40.8159 110.677 40.8159 112.994Z"/>
<path d="M25.1739 148.62L25.1739 135.664L28.8079 135.664C29.9666 135.664 30.5459 135.006 30.5459 133.689L30.5459 132.346C30.5459 131.03 29.9666 130.371 28.8079 130.371L12.6129 130.371C11.4543 130.371 10.8749 131.03 10.8749 132.346L10.8749 133.689C10.8749 135.006 11.4543 135.664 12.6129 135.664L16.2469 135.664L16.2469 148.62L10.7959 148.62C4.26528 148.62 0.999944 144.749 0.999944 137.007L0.999945 128.554C0.999945 120.812 4.26528 116.941 10.7959 116.941L30.6249 116.941C37.1556 116.941 40.4209 120.812 40.4209 128.554L40.4209 137.007C40.4209 144.749 37.1556 148.62 30.6249 148.62L25.1739 148.62Z"/>
<path d="M40.4209 164.197L40.4209 173.835C40.4209 181.577 37.1556 185.448 30.6249 185.448L17.1949 185.448L17.1949 165.303L11.9809 165.303C10.8223 165.303 10.2429 165.961 10.2429 167.278L10.2429 170.754C10.2429 172.071 10.8749 172.729 12.1389 172.729L14.3509 172.729L14.3509 185.448L10.7959 185.448C4.26527 185.448 0.999943 181.577 0.999943 173.835L0.999943 164.197C0.999944 156.455 4.26528 152.584 10.7959 152.584L30.6249 152.584C37.1556 152.584 40.4209 156.455 40.4209 164.197ZM24.4629 165.303L24.4629 172.729L29.4399 172.729C30.5986 172.729 31.1779 172.071 31.1779 170.754L31.1779 167.278C31.1779 165.961 30.5986 165.303 29.4399 165.303L24.4629 165.303Z"/>
<path d="M53.8509 208.65L53.8509 222.08L0.999941 222.08L0.999941 208.887L6.05594 208.887C2.68527 208.15 0.999941 205.754 0.999942 201.698L0.999942 200.276C0.999942 193.272 4.26527 189.769 10.7959 189.769L30.6249 189.769C37.1556 189.769 40.4209 193.272 40.4209 200.276L40.4209 201.698C40.4209 205.332 38.9989 207.65 36.1549 208.65L53.8509 208.65ZM10.8749 205.174L10.8749 206.517C10.8749 207.939 11.6649 208.65 13.2449 208.65L28.1759 208.65C29.7559 208.65 30.5459 207.939 30.5459 206.517L30.5459 205.174C30.5459 203.858 29.9666 203.199 28.8079 203.199L12.6129 203.199C11.4543 203.199 10.8749 203.858 10.8749 205.174Z"/>
<path d="M40.4209 239.185L40.4209 248.823C40.4209 256.565 37.1556 260.436 30.6249 260.436L17.1949 260.436L17.1949 240.291L11.9809 240.291C10.8223 240.291 10.2429 240.949 10.2429 242.266L10.2429 245.742C10.2429 247.059 10.8749 247.717 12.1389 247.717L14.3509 247.717L14.3509 260.436L10.7959 260.436C4.26527 260.436 0.999939 256.565 0.99994 248.823L0.99994 239.185C0.99994 231.443 4.26527 227.572 10.7959 227.572L30.6249 227.572C37.1556 227.572 40.4209 231.443 40.4209 239.185ZM24.4629 240.291L24.4629 247.717L29.4399 247.717C30.5986 247.717 31.1779 247.059 31.1779 245.742L31.1779 242.266C31.1779 240.949 30.5986 240.291 29.4399 240.291L24.4629 240.291Z"/>
<path d="M11.4279 282.533L14.5879 282.533C15.7466 282.533 16.3259 281.874 16.3259 280.558L16.3259 275.739C16.3259 268.155 19.5649 264.363 26.0429 264.363L30.6249 264.363C37.1556 264.363 40.4209 268.234 40.4209 275.976L40.4209 283.323C40.4209 291.065 37.1556 294.936 30.6249 294.936L27.3069 294.936L27.3069 282.138L29.9929 282.138C31.1516 282.138 31.7309 281.479 31.7309 280.163L31.7309 279.373C31.7309 278.056 31.1516 277.398 29.9929 277.398L26.5169 277.398C25.3583 277.398 24.7789 278.056 24.7789 279.373L24.7789 284.192C24.7789 288.247 23.9363 291.144 22.2509 292.882C20.6183 294.672 18.2483 295.568 15.1409 295.568L10.7959 295.568C4.26527 295.568 0.999938 291.697 0.999938 283.955L0.999938 276.213C0.999939 268.471 4.26527 264.6 10.7959 264.6L14.0349 264.6L14.0349 277.635L11.4279 277.635C10.2693 277.635 9.68994 278.293 9.68994 279.61L9.68994 280.558C9.68994 281.874 10.2693 282.533 11.4279 282.533Z"/>
<path d="M12.6129 335.977L19.8019 335.977C20.9606 335.977 21.5399 335.318 21.5399 334.002L21.5399 326.418C21.5399 322.52 22.3826 319.755 24.0679 318.123C25.8059 316.543 28.2813 315.753 31.4939 315.753L41.9219 315.753C48.4526 315.753 51.7179 319.597 51.7179 327.287L51.7179 338.11C51.7179 345.799 48.4526 349.644 41.9219 349.644L35.8389 349.644L35.8389 335.819L40.1049 335.819C41.2636 335.819 41.8429 335.16 41.8429 333.844L41.8429 331.553C41.8429 330.236 41.2636 329.578 40.1049 329.578L32.5999 329.578C31.4413 329.578 30.8619 330.236 30.8619 331.553L30.8619 338.979C30.8619 342.876 30.0456 345.641 28.4129 347.274C26.7803 348.959 24.3839 349.802 21.2239 349.802L10.7959 349.802C4.26527 349.802 0.999935 345.957 0.999936 338.268L0.999936 327.524C0.999936 319.782 4.26527 315.911 10.7959 315.911L16.8789 315.911L16.8789 329.736L12.6129 329.736C11.4543 329.736 10.8749 330.394 10.8749 331.711L10.8749 334.002C10.8749 335.318 11.4543 335.977 12.6129 335.977Z"/>
<path d="M10.8749 369.173L10.8749 384.894L0.999934 384.894L0.999935 355.348L51.7179 355.348L51.7179 369.173L10.8749 369.173Z"/>
<path d="M19.0119 401.884L0.999933 401.884L0.999933 388.059L51.7179 388.059L51.7179 411.522C51.7179 419.264 48.4526 423.135 41.9219 423.135L28.8079 423.135C23.8046 423.135 20.7236 420.871 19.5649 416.341L0.999932 425.663L0.999933 410.811L19.0119 402.753L19.0119 401.884ZM41.8429 407.335L41.8429 401.884L28.4129 401.884L28.4129 407.335C28.4129 408.652 28.9923 409.31 30.1509 409.31L40.1049 409.31C41.2636 409.31 41.8429 408.652 41.8429 407.335Z"/>
<path d="M51.7179 474.238L44.2129 474.238L0.99993 458.833L0.999931 444.534L41.0529 459.465L41.0529 442.085L51.7179 442.085L51.7179 474.238Z"/>
<path d="M40.1049 490.265L34.3379 490.265L34.3379 476.44L41.9219 476.44C48.4526 476.44 51.7179 480.311 51.7179 488.053L51.7179 497.612C51.7179 505.459 48.4526 509.383 41.9219 509.383L34.6539 509.383C32.0206 509.383 29.7559 508.935 27.8599 508.04C26.0166 507.197 24.0153 505.802 21.8559 503.853L10.8749 494.057L10.8749 509.383L0.999928 509.383L0.99993 476.835L10.0059 476.835L26.1219 491.845C27.7546 493.425 29.1503 494.478 30.3089 495.005C31.5203 495.532 32.9949 495.795 34.7329 495.795L40.1049 495.795C41.2636 495.795 41.8429 495.137 41.8429 493.82L41.8429 492.24C41.8429 490.923 41.2636 490.265 40.1049 490.265Z"/>
<path d="M40.1049 527.296L34.3379 527.296L34.3379 513.471L41.9219 513.471C48.4526 513.471 51.7179 517.342 51.7179 525.084L51.7179 534.643C51.7179 542.491 48.4526 546.414 41.9219 546.414L34.6539 546.414C32.0206 546.414 29.7559 545.967 27.8599 545.071C26.0166 544.229 24.0153 542.833 21.8559 540.884L10.8749 531.088L10.8749 546.414L0.999927 546.414L0.999928 513.866L10.0059 513.866L26.1219 528.876C27.7546 530.456 29.1503 531.51 30.3089 532.036C31.5203 532.563 32.9949 532.826 34.7329 532.826L40.1049 532.826C41.2636 532.826 41.8429 532.168 41.8429 530.851L41.8429 529.271C41.8429 527.955 41.2636 527.296 40.1049 527.296Z"/>
</mask>
<path d="M0.99995 13.484L0.99995 1.16L51.718 1.16L51.718 16.249L24.621 24.465L51.718 32.681L51.718 47.77L0.999948 47.77L0.999949 35.525L33.232 35.525L11.981 29.205L11.981 19.725L33.074 13.484L0.99995 13.484Z" stroke="#8EB4FF" stroke-width="2" mask="url(#path-1-outside-1)"/>
<path d="M40.4209 64.9068L40.4209 74.5448C40.4209 82.2868 37.1556 86.1578 30.625 86.1578L17.1949 86.1578L17.1949 66.0128L11.981 66.0128C10.8223 66.0128 10.243 66.6712 10.243 67.9878L10.243 71.4638C10.243 72.7805 10.8749 73.4388 12.1389 73.4388L14.3509 73.4388L14.3509 86.1578L10.7959 86.1578C4.26528 86.1578 0.999947 82.2868 0.999947 74.5448L0.999948 64.9068C0.999948 57.1648 4.26528 53.2938 10.7959 53.2938L30.625 53.2938C37.1556 53.2938 40.4209 57.1648 40.4209 64.9068ZM24.463 66.0128L24.463 73.4388L29.4399 73.4388C30.5986 73.4388 31.1779 72.7805 31.1779 71.4638L31.1779 67.9878C31.1779 66.6712 30.5986 66.0128 29.44 66.0128L24.463 66.0128Z" stroke="#8EB4FF" stroke-width="2" mask="url(#path-1-outside-1)"/>
<path d="M40.8159 112.994L40.8159 114.179L29.1239 114.179L29.1239 109.676C29.1239 106.358 27.3333 104.699 23.7519 104.699L0.999946 104.699L0.999946 91.2694L40.4209 91.2694L40.4209 104.462L34.3379 104.462C36.3393 104.884 37.9193 105.832 39.0779 107.306C40.2366 108.781 40.8159 110.677 40.8159 112.994Z" stroke="#8EB4FF" stroke-width="2" mask="url(#path-1-outside-1)"/>
<path d="M25.1739 148.62L25.1739 135.664L28.8079 135.664C29.9666 135.664 30.5459 135.006 30.5459 133.689L30.5459 132.346C30.5459 131.03 29.9666 130.371 28.8079 130.371L12.6129 130.371C11.4543 130.371 10.8749 131.03 10.8749 132.346L10.8749 133.689C10.8749 135.006 11.4543 135.664 12.6129 135.664L16.2469 135.664L16.2469 148.62L10.7959 148.62C4.26528 148.62 0.999944 144.749 0.999944 137.007L0.999945 128.554C0.999945 120.812 4.26528 116.941 10.7959 116.941L30.6249 116.941C37.1556 116.941 40.4209 120.812 40.4209 128.554L40.4209 137.007C40.4209 144.749 37.1556 148.62 30.6249 148.62L25.1739 148.62Z" stroke="#8EB4FF" stroke-width="2" mask="url(#path-1-outside-1)"/>
<path d="M40.4209 164.197L40.4209 173.835C40.4209 181.577 37.1556 185.448 30.6249 185.448L17.1949 185.448L17.1949 165.303L11.9809 165.303C10.8223 165.303 10.2429 165.961 10.2429 167.278L10.2429 170.754C10.2429 172.071 10.8749 172.729 12.1389 172.729L14.3509 172.729L14.3509 185.448L10.7959 185.448C4.26527 185.448 0.999943 181.577 0.999943 173.835L0.999943 164.197C0.999944 156.455 4.26528 152.584 10.7959 152.584L30.6249 152.584C37.1556 152.584 40.4209 156.455 40.4209 164.197ZM24.4629 165.303L24.4629 172.729L29.4399 172.729C30.5986 172.729 31.1779 172.071 31.1779 170.754L31.1779 167.278C31.1779 165.961 30.5986 165.303 29.4399 165.303L24.4629 165.303Z" stroke="#8EB4FF" stroke-width="2" mask="url(#path-1-outside-1)"/>
<path d="M53.8509 208.65L53.8509 222.08L0.999941 222.08L0.999941 208.887L6.05594 208.887C2.68527 208.15 0.999941 205.754 0.999942 201.698L0.999942 200.276C0.999942 193.272 4.26527 189.769 10.7959 189.769L30.6249 189.769C37.1556 189.769 40.4209 193.272 40.4209 200.276L40.4209 201.698C40.4209 205.332 38.9989 207.65 36.1549 208.65L53.8509 208.65ZM10.8749 205.174L10.8749 206.517C10.8749 207.939 11.6649 208.65 13.2449 208.65L28.1759 208.65C29.7559 208.65 30.5459 207.939 30.5459 206.517L30.5459 205.174C30.5459 203.858 29.9666 203.199 28.8079 203.199L12.6129 203.199C11.4543 203.199 10.8749 203.858 10.8749 205.174Z" stroke="#8EB4FF" stroke-width="2" mask="url(#path-1-outside-1)"/>
<path d="M40.4209 239.185L40.4209 248.823C40.4209 256.565 37.1556 260.436 30.6249 260.436L17.1949 260.436L17.1949 240.291L11.9809 240.291C10.8223 240.291 10.2429 240.949 10.2429 242.266L10.2429 245.742C10.2429 247.059 10.8749 247.717 12.1389 247.717L14.3509 247.717L14.3509 260.436L10.7959 260.436C4.26527 260.436 0.999939 256.565 0.99994 248.823L0.99994 239.185C0.99994 231.443 4.26527 227.572 10.7959 227.572L30.6249 227.572C37.1556 227.572 40.4209 231.443 40.4209 239.185ZM24.4629 240.291L24.4629 247.717L29.4399 247.717C30.5986 247.717 31.1779 247.059 31.1779 245.742L31.1779 242.266C31.1779 240.949 30.5986 240.291 29.4399 240.291L24.4629 240.291Z" stroke="#8EB4FF" stroke-width="2" mask="url(#path-1-outside-1)"/>
<path d="M11.4279 282.533L14.5879 282.533C15.7466 282.533 16.3259 281.874 16.3259 280.558L16.3259 275.739C16.3259 268.155 19.5649 264.363 26.0429 264.363L30.6249 264.363C37.1556 264.363 40.4209 268.234 40.4209 275.976L40.4209 283.323C40.4209 291.065 37.1556 294.936 30.6249 294.936L27.3069 294.936L27.3069 282.138L29.9929 282.138C31.1516 282.138 31.7309 281.479 31.7309 280.163L31.7309 279.373C31.7309 278.056 31.1516 277.398 29.9929 277.398L26.5169 277.398C25.3583 277.398 24.7789 278.056 24.7789 279.373L24.7789 284.192C24.7789 288.247 23.9363 291.144 22.2509 292.882C20.6183 294.672 18.2483 295.568 15.1409 295.568L10.7959 295.568C4.26527 295.568 0.999938 291.697 0.999938 283.955L0.999938 276.213C0.999939 268.471 4.26527 264.6 10.7959 264.6L14.0349 264.6L14.0349 277.635L11.4279 277.635C10.2693 277.635 9.68994 278.293 9.68994 279.61L9.68994 280.558C9.68994 281.874 10.2693 282.533 11.4279 282.533Z" stroke="#8EB4FF" stroke-width="2" mask="url(#path-1-outside-1)"/>
<path d="M12.6129 335.977L19.8019 335.977C20.9606 335.977 21.5399 335.318 21.5399 334.002L21.5399 326.418C21.5399 322.52 22.3826 319.755 24.0679 318.123C25.8059 316.543 28.2813 315.753 31.4939 315.753L41.9219 315.753C48.4526 315.753 51.7179 319.597 51.7179 327.287L51.7179 338.11C51.7179 345.799 48.4526 349.644 41.9219 349.644L35.8389 349.644L35.8389 335.819L40.1049 335.819C41.2636 335.819 41.8429 335.16 41.8429 333.844L41.8429 331.553C41.8429 330.236 41.2636 329.578 40.1049 329.578L32.5999 329.578C31.4413 329.578 30.8619 330.236 30.8619 331.553L30.8619 338.979C30.8619 342.876 30.0456 345.641 28.4129 347.274C26.7803 348.959 24.3839 349.802 21.2239 349.802L10.7959 349.802C4.26527 349.802 0.999935 345.957 0.999936 338.268L0.999936 327.524C0.999936 319.782 4.26527 315.911 10.7959 315.911L16.8789 315.911L16.8789 329.736L12.6129 329.736C11.4543 329.736 10.8749 330.394 10.8749 331.711L10.8749 334.002C10.8749 335.318 11.4543 335.977 12.6129 335.977Z" stroke="#8EB4FF" stroke-width="2" mask="url(#path-1-outside-1)"/>
<path d="M10.8749 369.173L10.8749 384.894L0.999934 384.894L0.999935 355.348L51.7179 355.348L51.7179 369.173L10.8749 369.173Z" stroke="#8EB4FF" stroke-width="2" mask="url(#path-1-outside-1)"/>
<path d="M19.0119 401.884L0.999933 401.884L0.999933 388.059L51.7179 388.059L51.7179 411.522C51.7179 419.264 48.4526 423.135 41.9219 423.135L28.8079 423.135C23.8046 423.135 20.7236 420.871 19.5649 416.341L0.999932 425.663L0.999933 410.811L19.0119 402.753L19.0119 401.884ZM41.8429 407.335L41.8429 401.884L28.4129 401.884L28.4129 407.335C28.4129 408.652 28.9923 409.31 30.1509 409.31L40.1049 409.31C41.2636 409.31 41.8429 408.652 41.8429 407.335Z" stroke="#8EB4FF" stroke-width="2" mask="url(#path-1-outside-1)"/>
<path d="M51.7179 474.238L44.2129 474.238L0.99993 458.833L0.999931 444.534L41.0529 459.465L41.0529 442.085L51.7179 442.085L51.7179 474.238Z" stroke="#8EB4FF" stroke-width="2" mask="url(#path-1-outside-1)"/>
<path d="M40.1049 490.265L34.3379 490.265L34.3379 476.44L41.9219 476.44C48.4526 476.44 51.7179 480.311 51.7179 488.053L51.7179 497.612C51.7179 505.459 48.4526 509.383 41.9219 509.383L34.6539 509.383C32.0206 509.383 29.7559 508.935 27.8599 508.04C26.0166 507.197 24.0153 505.802 21.8559 503.853L10.8749 494.057L10.8749 509.383L0.999928 509.383L0.99993 476.835L10.0059 476.835L26.1219 491.845C27.7546 493.425 29.1503 494.478 30.3089 495.005C31.5203 495.532 32.9949 495.795 34.7329 495.795L40.1049 495.795C41.2636 495.795 41.8429 495.137 41.8429 493.82L41.8429 492.24C41.8429 490.923 41.2636 490.265 40.1049 490.265Z" stroke="#8EB4FF" stroke-width="2" mask="url(#path-1-outside-1)"/>
<path d="M40.1049 527.296L34.3379 527.296L34.3379 513.471L41.9219 513.471C48.4526 513.471 51.7179 517.342 51.7179 525.084L51.7179 534.643C51.7179 542.491 48.4526 546.414 41.9219 546.414L34.6539 546.414C32.0206 546.414 29.7559 545.967 27.8599 545.071C26.0166 544.229 24.0153 542.833 21.8559 540.884L10.8749 531.088L10.8749 546.414L0.999927 546.414L0.999928 513.866L10.0059 513.866L26.1219 528.876C27.7546 530.456 29.1503 531.51 30.3089 532.036C31.5203 532.563 32.9949 532.826 34.7329 532.826L40.1049 532.826C41.2636 532.826 41.8429 532.168 41.8429 530.851L41.8429 529.271C41.8429 527.955 41.2636 527.296 40.1049 527.296Z" stroke="#8EB4FF" stroke-width="2" mask="url(#path-1-outside-1)"/>
</svg>
