<svg width="61" height="61" viewBox="0 0 61 61" fill="none" xmlns="http://www.w3.org/2000/svg">
<path d="M58.7949 44.6097L51.3452 37.16C49.2913 35.1063 45.9492 35.1063 43.8955 37.16L40.5093 40.5462C38.9533 42.1022 36.4214 42.1017 34.866 40.5468L20.1888 25.857C18.6292 24.2974 18.6289 21.7731 20.1888 20.2133C20.7342 19.6679 22.3003 18.1017 23.575 16.8271C25.6198 14.7823 25.6484 11.4507 23.573 9.37551L16.1252 1.9512C14.0714 -0.102566 10.7294 -0.102566 8.68103 1.94582C7.14823 3.46528 6.65384 3.95545 5.96656 4.63677C-1.43996 12.0432 -1.43997 24.0943 5.9662 31.5005L29.2218 54.7683C36.6457 62.1923 48.6614 62.1929 56.0858 54.7683L58.7949 52.0593C60.8488 50.0055 60.8488 46.6636 58.7949 44.6097ZM11.1588 4.4344C11.8434 3.74981 12.9572 3.74969 13.644 4.43627L21.0918 11.8606C21.778 12.5468 21.778 13.6574 21.0918 14.3438L19.85 15.5854L9.92357 5.65891L11.1588 4.4344ZM31.7055 52.2855L8.44975 29.0174C2.71953 23.2872 2.40457 14.2895 7.4811 8.18295L17.3788 18.0806C14.7781 21.0288 14.8865 25.5213 17.705 28.3399L32.3818 43.029C32.3819 43.0291 32.3821 43.0293 32.3822 43.0294C35.1977 45.845 39.69 45.9604 42.6418 43.3562L52.5397 53.2541C46.4527 58.3219 37.4752 58.0551 31.7055 52.2855ZM56.3118 49.5761L55.0701 50.8179L45.1372 40.8848L46.3787 39.6432C47.0634 38.9586 48.1773 38.9585 48.862 39.6432L56.3117 47.0929C56.9964 47.7777 56.9964 48.8917 56.3118 49.5761Z" fill="#CBCBCB"/>
</svg>
